# xmcd
#
# Track frame offsets:
#	150
#	9600
#	20641
#	29746
#	40783
#	51724
#	62385
#	75969
#	87548
#	98745
#	107411
#	120366
#	130313
#	139919
#	151060
#	163002
#	171893
#	182030
#	193372
#	206174
#
# Disc length: 2865 seconds
#
# Revision: 1
# Processed by: cddbd v1.5.2PL0 Copyright (c) Steve Scherf et al.
# Submitted via: audiograbber 1.83.01
#
DISCID=120b2f14
DTITLE=Various Artist - It's Country - CD1
DYEAR=2013
DGENRE=Country
TTITLE0=Elvis Presley - Blue Moon Of Kentucky
TTITLE1=Conway Twitty - Mona Lisa
TTITLE2=Johnny Cash - Honky Tonk Girl
TTITLE3=Dolly Parton - It Wasnt God Who Made Honky Tonk Angels
TTITLE4=George Jones - Tender Years
TTITLE5=Jim Reeves - Jim Reeves
TTITLE6=Johnny Paycheck - Slide Off Of Your Satin Sheets
TTITLE7=Lynn Anderson - Listen To A Country Song
TTITLE8=Merle Haggard - Silver Wings
TTITLE9=Willie Nelson - Slow Down Old World
TTITLE10=Patsy Cline - I Fall To Pieces
TTITLE11=Faron Young - Country Girl
TTITLE12=George Jones and Margie Singleton - Did I Ever Told You
TTITLE13=Buck Owens - Excuse Me
TTITLE14=Willie Nelson - Ill Stay Around
TTITLE15=Conway Twitty - Shes Mine
TTITLE16=Johnny Cash - Rocky Island Line
TTITLE17=Elvis Presley - Mystery Train
TTITLE18=Johnny Horton - North To Alaska
TTITLE19=Waylon Jennings - Loves Gonna Live Here Again
EXTD=
EXTT0=
EXTT1=
EXTT2=
EXTT3=
EXTT4=
EXTT5=
EXTT6=
EXTT7=
EXTT8=
EXTT9=
EXTT10=
EXTT11=
EXTT12=
EXTT13=
EXTT14=
EXTT15=
EXTT16=
EXTT17=
EXTT18=
EXTT19=
PLAYORDER=
